<?xml version="1.0" encoding="UTF-8" standalone="no"?>
<!-- Created with Inkscape (http://www.inkscape.org/) -->

<svg
 xmlns:dc="http://purl.org/dc/elements/1.1/"
 xmlns:cc="http://creativecommons.org/ns#"
 xmlns:rdf="http://www.w3.org/1999/02/22-rdf-syntax-ns#"
 xmlns:svg="http://www.w3.org/2000/svg"
 xmlns="http://www.w3.org/2000/svg"
 version="1.1"
 width="62.5"
 height="62.5"
 id="svg3419">
<defs
 id="defs3421" />
<metadata
 id="metadata3424">
<rdf:RDF>
<cc:Work
 rdf:about="">
<dc:format>image/svg+xml</dc:format>
<dc:type
 rdf:resource="http://purl.org/dc/dcmitype/StillImage" />
<dc:title></dc:title>
</cc:Work>
</rdf:RDF>
</metadata>
<g
 transform="translate(0,-989.86218)"
 id="layer1">
<g
 transform="matrix(0.4372338,0,0,0.52279213,75.869836,957.88159)"
 id="g63818">
<g
 transform="matrix(3.4156897,0,0,3.3289941,-1005.3432,-2662.945)"
 id="g63820">
<path
 d="m 250.786,848.362 c 2.471,-1.234 10.115,0.127 13.5,-2.303 3.385,2.431 11.125,0.963 13.352,2.303 2.202,1.325 1.942,0.902 2.556,2.589 -0.677,0.972 -1.054,1.593 -2.408,1.107 -3.385,-0.972 -10.115,0.458 -13.5,-1 -3.385,1.459 -10.115,0.028 -13.5,1 -1.354,0.486 -1.731,-0.21 -2.408,-1.183 1.353,-1.945 0.057,-1.34 2.408,-2.513 z"
 id="path63822"
 style="fill:#ffffff;stroke:#ffffff;stroke-width:0.44479999;stroke-linejoin:round" />
<path
 d="m 256.786,845.557 c 2.5,2.5 12.5,2.5 15,0 0.5,-1.5 0,-2 0,-2 0,-2.5 -2.063,-4 -2.063,-4 5.5,-1.5 5.563,-11.5 -5.438,-15.5 -11,4 -10.722,14.152 -5.222,15.652 0,0 -2.352,0.969 -2.352,3.469 10e-4,0 -0.425,0.879 0.075,2.379 z"
 id="path63824"
 style="fill:#ffffff;stroke:#ffffff;stroke-width:0.44479999;stroke-linejoin:round" />
<path
 d="m 267.311,822.842 c 0,1.636 -1.402,2.962 -3.132,2.962 -1.73,0 -3.132,-1.326 -3.132,-2.962 0,-1.636 1.402,-2.962 3.132,-2.962 1.729,0 3.132,1.326 3.132,2.962 z"
 id="path63826"
 style="fill:#ffffff;stroke:#ffffff;stroke-width:0.3651;stroke-linejoin:round" />
<path
 d="m 259.286,839.557 h 10"
 id="path63828"
 style="fill:#ff8bff;stroke:#ff78ff;stroke-width:0.44479999;stroke-linecap:round" />
<path
 d="m 264.286,829.057 v 5"
 id="path63830"
 style="fill:#ff8bff;stroke:#ff78ff;stroke-width:0.44479999;stroke-linecap:round" />
<path
 d="m 261.786,831.557 h 5"
 id="path63832"
 style="fill:#ff8bff;stroke:#ff78ff;stroke-width:0.44479999;stroke-linecap:round" />
</g>
<g
 transform="matrix(3.067229,0,0,3.067558,-913.48194,-2443.602)"
 id="g63834">
<path
 d="m 250.786,849.557 c 3.385,-0.972 10.114,0.431 13.5,-2 3.385,2.431 10.115,1.028 13.5,2 0,0 1.646,0.542 3,2 -0.677,0.972 -1.646,0.986 -3,0.5 -3.385,-0.973 -10.115,0.458 -13.5,-1 -3.385,1.458 -10.115,0.027 -13.5,1 -1.354,0.486 -2.323,0.472 -3,-0.5 1.354,-1.944 3,-2 3,-2 z"
 id="path63836"
 style="stroke:#000000;stroke-width:0.48899999;stroke-linejoin:round" />
<path
 d="m 256.785,845.557 c 2.5,2.5 12.5,2.5 15,0 0.5,-1.5 0,-2 0,-2 0,-2.5 -2.5,-4 -2.5,-4 5.5,-1.5 6,-11.5 -5,-15.5 -11,4 -10.5,14 -5,15.5 0,0 -2.5,1.5 -2.5,4 0,0 -0.499,0.5 0,2 z"
 id="path63838"
 style="stroke:#000000;stroke-width:0.48899999;stroke-linejoin:round" />
<path
 d="m 266.786,821.557 c 0,1.381 -1.119,2.5 -2.5,2.5 -1.381,0 -2.5,-1.119 -2.5,-2.5 0,-1.381 1.119,-2.5 2.5,-2.5 1.38,0 2.5,1.12 2.5,2.5 z"
 id="path63840"
 style="stroke:#000000;stroke-width:0.48899999;stroke-linejoin:round" />
<path
 d="m 259.286,839.557 h 10"
 id="path63842"
 style="fill:none;stroke:#ffffff;stroke-width:0.48899999;stroke-linecap:round" />
<path
 d="m 256.785,843.557 h 15"
 id="path63844"
 style="fill:none;stroke:#ffffff;stroke-width:0.48899999;stroke-linecap:round" />
<path
 d="m 264.286,829.057 v 5"
 id="path63846"
 style="fill:none;stroke:#ffffff;stroke-width:0.48899999;stroke-linecap:round" />
<path
 d="m 261.786,831.557 h 5"
 id="path63848"
 style="fill:none;stroke:#ffffff;stroke-width:0.48899999;stroke-linecap:round" />
</g>
</g>
</g>
</svg>
