<?xml version="1.0" encoding="UTF-8" standalone="no"?>
<!-- Created with Inkscape (http://www.inkscape.org/) -->

<svg
 xmlns:dc="http://purl.org/dc/elements/1.1/"
 xmlns:cc="http://creativecommons.org/ns#"
 xmlns:rdf="http://www.w3.org/1999/02/22-rdf-syntax-ns#"
 xmlns:svg="http://www.w3.org/2000/svg"
 xmlns="http://www.w3.org/2000/svg"
 xmlns:xlink="http://www.w3.org/1999/xlink"
 xmlns:sodipodi="http://sodipodi.sourceforge.net/DTD/sodipodi-0.dtd"
 xmlns:inkscape="http://www.inkscape.org/namespaces/inkscape"
 width="500"
 height="500"
 viewBox="0 0 500 500"
 id="svg2"
 version="1.1"
 inkscape:version="0.48.4 r9939"
 sodipodi:docname="ChessBoard2.svg">
<style
 id="style3">
.drop-target{
    fill:red!important;
    }
</style>
<script
 type="text/javascript"
 xlink:href="https://cdnjs.cloudflare.com/ajax/libs/interact.js/1.2.2/interact.min.js"
 id="script3" />
<script
 type="text/javascript"
 id="script5">
<![CDATA[
interact('.draggable')
  .draggable({
    // enable inertial throwing
    inertia: true,
    // keep the element within the area of it's parent
    restrict: {
      restriction: '#layer1',
      endOnly: true,
      elementRect: { top: 0, left: 0, bottom: 1, right: 1 }
    },

    // call this function on every dragmove event
    onmove: function (event) {
      var target = event.target,
          // keep the dragged position in the data-x/data-y attributes
          x = (parseFloat(target.getAttribute('data-x')) || 0) + event.dx,
          y = (parseFloat(target.getAttribute('data-y')) || 0) + event.dy;

      var correctY=target.transform.baseVal[0].matrix.f;
      var correctX=target.transform.baseVal[0].matrix.e;
      // translate the element
      target.style.webkitTransform =
      target.style.transform =
        'translate(' + (x+correctX) + 'px, ' + (y+correctY) + 'px)';

      // update the posiion attributes
      target.setAttribute('data-x', x);
      target.setAttribute('data-y', y);
    },
    // call this function on every dragend event
    onend: function (event) {
      var textEl = event.target.querySelector('p');

      textEl && (textEl.textContent =
        'moved a distance of '
        + (Math.sqrt(event.dx * event.dx +
                     event.dy * event.dy)|0) + 'px');
    }
  });

interact('.dropzone').dropzone({
    accept: '.chesspiece',
    overlap: 0,
    ondropactivate: function (event) {
    // add active dropzone feedback
    event.target.classList.add('drop-active');
  },
  ondragenter: function (event) {
    var draggableElement = event.relatedTarget,
        dropzoneElement = event.target;
	console.log(dropzoneElement);

    // feedback the possibility of a drop
    dropzoneElement.classList.add('drop-target');
    draggableElement.classList.add('can-drop');

  },
  ondragleave: function (event) {
    // remove the drop feedback style
    event.target.classList.remove('drop-target');
    event.relatedTarget.classList.remove('can-drop');
  },
  ondrop: function (event) {
  },
  ondropdeactivate: function (event) {
    // remove active dropzone feedback
    event.target.classList.remove('drop-active');
    event.target.classList.remove('drop-target');
  }
});
]]>
</script>
<defs
 id="defs4" />
<sodipodi:namedview
 id="base"
 pagecolor="#92ffff"
 bordercolor="#666666"
 borderopacity="1.0"
 inkscape:pageopacity="0.90588235"
 inkscape:pageshadow="2"
 inkscape:zoom="1.304"
 inkscape:cx="308.51048"
 inkscape:cy="209.58809"
 inkscape:document-units="px"
 inkscape:current-layer="layer1"
 showgrid="false"
 inkscape:window-width="1280"
 inkscape:window-height="908"
 inkscape:window-x="0"
 inkscape:window-y="0"
 inkscape:window-maximized="1" />
<metadata
 id="metadata7">
<rdf:RDF>
<cc:Work
 rdf:about="">
<dc:format>image/svg+xml</dc:format>
<dc:type
 rdf:resource="http://purl.org/dc/dcmitype/StillImage" />
<dc:title />
</cc:Work>
</rdf:RDF>
</metadata>
<g
 inkscape:label="Layer 1"
 inkscape:groupmode="layer"
 id="layer1"
 transform="translate(0,-552.36218)">
<rect
 style="fill:#e6e6e6;fill-opacity:1;stroke:none"
 id="A8"
 class="dropzone"
 width="62.468605"
 height="62.468605"
 x="1.8899355"
 y="554.33563"
 inkscape:label="#rect3004" />
<rect
 style="fill:#000000;fill-opacity:1;stroke:none"
 id="B8"
 width="62.468605"
 height="62.468605"
 x="64.376968"
 y="554.33557"
 inkscape:label="#rect3004-4" />
<rect
 style="fill:#e6e6e6;fill-opacity:1;stroke:none"
 id="C8"
 width="62.468605"
 height="62.468605"
 x="126.84099"
 y="554.33557"
 inkscape:label="#rect3004-7" />
<rect
 style="fill:#000000;fill-opacity:1;stroke:none"
 id="D8"
 width="62.468605"
 height="62.468605"
 x="189.44054"
 y="554.33557"
 inkscape:label="#rect3004-4-7" />
<rect
 style="fill:#e6e6e6;fill-opacity:1;stroke:none"
 id="E8"
 width="62.468605"
 height="62.468605"
 x="252.04012"
 y="554.33557"
 inkscape:label="#rect3004-7-2" />
<rect
 style="fill:#000000;fill-opacity:1;stroke:none"
 id="F8"
 width="62.468605"
 height="62.468605"
 x="314.50415"
 y="554.33557"
 inkscape:label="#rect3004-4-7-9" />
<rect
 style="fill:#e6e6e6;fill-opacity:1;stroke:none"
 id="G8"
 width="62.468605"
 height="62.468605"
 x="376.9682"
 y="554.33557"
 inkscape:label="#rect3004-7-2-9" />
<rect
 style="fill:#000000;fill-opacity:1;stroke:none"
 id="H8"
 width="62.468605"
 height="62.468605"
 x="439.29669"
 y="554.33557"
 inkscape:label="#rect3004-4-7-9-7" />
<rect
 style="fill:#000000;fill-opacity:1;stroke:none"
 id="A7"
 width="62.468605"
 height="62.468605"
 x="1.9333162"
 y="616.80054"
 inkscape:label="#rect3004-4-1" />
<rect
 style="fill:#e6e6e6;fill-opacity:1;stroke:none"
 id="B7"
 width="62.468605"
 height="62.468605"
 x="64.397385"
 y="616.80054"
 inkscape:label="#rect3004-7-6" />
<rect
 style="fill:#000000;fill-opacity:1;stroke:none"
 id="C7"
 width="62.468605"
 height="62.468605"
 x="126.99693"
 y="616.80054"
 inkscape:label="#rect3004-4-7-6" />
<rect
 style="fill:#e6e6e6;fill-opacity:1;stroke:none"
 id="D7"
 width="62.468605"
 height="62.468605"
 x="189.59645"
 y="616.80054"
 inkscape:label="#rect3004-7-2-0" />
<rect
 style="fill:#000000;fill-opacity:1;stroke:none"
 id="E7"
 width="62.468605"
 height="62.468605"
 x="252.06053"
 y="616.80054"
 inkscape:label="#rect3004-4-7-9-8" />
<rect
 style="fill:#e6e6e6;fill-opacity:1;stroke:none"
 id="F7"
 width="62.468605"
 height="62.468605"
 x="314.52448"
 y="616.80054"
 inkscape:label="#rect3004-7-2-9-3" />
<rect
 style="fill:#000000;fill-opacity:1;stroke:none"
 id="G7"
 width="62.468605"
 height="62.468605"
 x="376.85327"
 y="616.80054"
 inkscape:label="#rect3004-4-7-9-7-2" />
<rect
 style="fill:#e6e6e6;fill-opacity:1;stroke:none"
 id="H7"
 width="62.468605"
 height="62.468605"
 x="439.29645"
 y="616.80072"
 inkscape:label="#rect3004-7-2-9-5" />
<rect
 style="fill:#e6e6e6;fill-opacity:1;stroke:none"
 id="A6"
 width="62.468605"
 height="62.468605"
 x="1.9013948"
 y="679.29749"
 inkscape:label="#rect3004-71" />
<rect
 style="fill:#000000;fill-opacity:1;stroke:none"
 id="B6"
 width="62.468605"
 height="62.468605"
 x="64.388443"
 y="679.29736"
 inkscape:label="#rect3004-4-3" />
<rect
 style="fill:#e6e6e6;fill-opacity:1;stroke:none"
 id="C6"
 width="62.468605"
 height="62.468605"
 x="126.85252"
 y="679.29736"
 inkscape:label="#rect3004-7-7" />
<rect
 style="fill:#000000;fill-opacity:1;stroke:none"
 id="D6"
 width="62.468605"
 height="62.468605"
 x="189.45201"
 y="679.29736"
 inkscape:label="#rect3004-4-7-98" />
<rect
 style="fill:#e6e6e6;fill-opacity:1;stroke:none"
 id="E6"
 width="62.468605"
 height="62.468605"
 x="252.05159"
 y="679.29736"
 inkscape:label="#rect3004-7-2-8" />
<rect
 style="fill:#000000;fill-opacity:1;stroke:none"
 id="F6"
 width="62.468605"
 height="62.468605"
 x="314.51559"
 y="679.29736"
 inkscape:label="#rect3004-4-7-9-5" />
<rect
 style="fill:#e6e6e6;fill-opacity:1;stroke:none"
 id="G6"
 width="62.468605"
 height="62.468605"
 x="376.97961"
 y="679.29736"
 inkscape:label="#rect3004-7-2-9-33" />
<rect
 style="fill:#000000;fill-opacity:1;stroke:none"
 id="H6"
 width="62.468605"
 height="62.468605"
 x="439.30823"
 y="679.29736"
 inkscape:label="#rect3004-4-7-9-7-9" />
<rect
 style="fill:#000000;fill-opacity:1;stroke:none"
 id="A5"
 width="62.468605"
 height="62.468605"
 x="1.9447756"
 y="741.76239"
 inkscape:label="#rect3004-4-1-9" />
<rect
 style="fill:#e6e6e6;fill-opacity:1;stroke:none"
 id="B5"
 width="62.468605"
 height="62.468605"
 x="64.408829"
 y="741.76239"
 inkscape:label="#rect3004-7-6-5" />
<rect
 style="fill:#000000;fill-opacity:1;stroke:none"
 id="C5"
 width="62.468605"
 height="62.468605"
 x="127.00841"
 y="741.76239"
 inkscape:label="#rect3004-4-7-6-4" />
<rect
 style="fill:#e6e6e6;fill-opacity:1;stroke:none"
 id="D5"
 width="62.468605"
 height="62.468605"
 x="189.60786"
 y="741.76239"
 inkscape:label="#rect3004-7-2-0-3" />
<rect
 style="fill:#000000;fill-opacity:1;stroke:none"
 id="E5"
 width="62.468605"
 height="62.468605"
 x="252.07201"
 y="741.76239"
 inkscape:label="#rect3004-4-7-9-8-7" />
<rect
 style="fill:#e6e6e6;fill-opacity:1;stroke:none"
 id="F5"
 width="62.468605"
 height="62.468605"
 x="314.53601"
 y="741.76239"
 inkscape:label="#rect3004-7-2-9-3-8" />
<rect
 style="fill:#000000;fill-opacity:1;stroke:none"
 id="G5"
 width="62.468605"
 height="62.468605"
 x="376.86469"
 y="741.76239"
 inkscape:label="#rect3004-4-7-9-7-2-2" />
<rect
 style="fill:#e6e6e6;fill-opacity:1;stroke:none"
 id="H5"
 width="62.468605"
 height="62.468605"
 x="439.30792"
 y="741.76251"
 inkscape:label="#rect3004-7-2-9-5-6" />
<rect
 style="fill:#e6e6e6;fill-opacity:1;stroke:none"
 id="A4"
 width="62.468605"
 height="62.468605"
 x="2.0028658"
 y="804.10669"
 inkscape:label="#rect3004-1" />
<rect
 style="fill:#000000;fill-opacity:1;stroke:none"
 id="B4"
 width="62.468605"
 height="62.468605"
 x="64.489944"
 y="804.10657"
 inkscape:label="#rect3004-4-17" />
<rect
 style="fill:#e6e6e6;fill-opacity:1;stroke:none"
 id="C4"
 width="62.468605"
 height="62.468605"
 x="126.95396"
 y="804.10657"
 inkscape:label="#rect3004-7-0" />
<rect
 style="fill:#000000;fill-opacity:1;stroke:none"
 id="D4"
 width="62.468605"
 height="62.468605"
 x="189.55357"
 y="804.10657"
 inkscape:label="#rect3004-4-7-2" />
<rect
 style="fill:#e6e6e6;fill-opacity:1;stroke:none"
 id="E4"
 width="62.468605"
 height="62.468605"
 x="252.15306"
 y="804.10657"
 inkscape:label="#rect3004-7-2-4" />
<rect
 style="fill:#000000;fill-opacity:1;stroke:none"
 id="F4"
 width="62.468605"
 height="62.468605"
 x="314.61713"
 y="804.10657"
 inkscape:label="#rect3004-4-7-9-75" />
<rect
 style="fill:#e6e6e6;fill-opacity:1;stroke:none"
 id="G4"
 width="62.468605"
 height="62.468605"
 x="377.08112"
 y="804.10657"
 inkscape:label="#rect3004-7-2-9-4" />
<rect
 style="fill:#000000;fill-opacity:1;stroke:none"
 id="H4"
 width="62.468605"
 height="62.468605"
 x="439.40979"
 y="804.10657"
 inkscape:label="#rect3004-4-7-9-7-0" />
<rect
 style="fill:#000000;fill-opacity:1;stroke:none"
 id="A3"
 width="62.468605"
 height="62.468605"
 x="2.0462465"
 y="866.57141"
 inkscape:label="#rect3004-4-1-7" />
<rect
 style="fill:#e6e6e6;fill-opacity:1;stroke:none"
 id="B3"
 width="62.468605"
 height="62.468605"
 x="64.51033"
 y="866.57141"
 inkscape:label="#rect3004-7-6-1" />
<rect
 style="fill:#000000;fill-opacity:1;stroke:none"
 id="C3"
 width="62.468605"
 height="62.468605"
 x="127.10985"
 y="866.57141"
 inkscape:label="#rect3004-4-7-6-9" />
<rect
 style="fill:#e6e6e6;fill-opacity:1;stroke:none"
 id="D3"
 width="62.468605"
 height="62.468605"
 x="189.70943"
 y="866.57141"
 inkscape:label="#rect3004-7-2-0-8" />
<rect
 style="fill:#000000;fill-opacity:1;stroke:none"
 id="E3"
 width="62.468605"
 height="62.468605"
 x="252.17345"
 y="866.57141"
 inkscape:label="#rect3004-4-7-9-8-5" />
<rect
 style="fill:#e6e6e6;fill-opacity:1;stroke:none"
 id="F3"
 width="62.468605"
 height="62.468605"
 x="316.17126"
 y="865.80457"
 inkscape:label="#rect3004-7-2-9-3-89" />
<rect
 style="fill:#000000;fill-opacity:1;stroke:none"
 id="G3"
 width="62.468605"
 height="62.468605"
 x="376.96613"
 y="866.57141"
 inkscape:label="#rect3004-4-7-9-7-2-5" />
<rect
 style="fill:#e6e6e6;fill-opacity:1;stroke:none"
 id="H3"
 width="62.468605"
 height="62.468605"
 x="439.40955"
 y="866.57166"
 inkscape:label="#rect3004-7-2-9-5-66" />
<rect
 style="fill:#e6e6e6;fill-opacity:1;stroke:none"
 id="A2"
 width="62.468605"
 height="62.468605"
 x="2.0143709"
 y="929.06842"
 inkscape:label="#rect3004-71-9" />
<rect
 style="fill:#000000;fill-opacity:1;stroke:none"
 id="B2"
 width="62.468605"
 height="62.468605"
 x="64.501419"
 y="929.06836"
 inkscape:label="#rect3004-4-3-2" />
<rect
 style="fill:#e6e6e6;fill-opacity:1;stroke:none"
 id="C2"
 width="62.468605"
 height="62.468605"
 x="126.96547"
 y="929.06836"
 inkscape:label="#rect3004-7-7-7" />
<rect
 style="fill:#000000;fill-opacity:1;stroke:none"
 id="D2"
 width="62.468605"
 height="62.468605"
 x="189.56499"
 y="929.06836"
 inkscape:label="#rect3004-4-7-98-0" />
<rect
 style="fill:#e6e6e6;fill-opacity:1;stroke:none"
 id="E2"
 width="62.468605"
 height="62.468605"
 x="252.16451"
 y="929.06836"
 inkscape:label="#rect3004-7-2-8-7" />
<rect
 style="fill:#000000;fill-opacity:1;stroke:none"
 id="F2"
 width="62.468605"
 height="62.468605"
 x="314.6286"
 y="929.06836"
 inkscape:label="#rect3004-4-7-9-5-2" />
<rect
 style="fill:#e6e6e6;fill-opacity:1;stroke:none"
 id="G2"
 width="62.468605"
 height="62.468605"
 x="377.09253"
 y="929.06836"
 inkscape:label="#rect3004-7-2-9-33-5" />
<rect
 style="fill:#000000;fill-opacity:1;stroke:none"
 id="H2"
 width="62.468605"
 height="62.468605"
 x="439.42133"
 y="929.06836"
 inkscape:label="#rect3004-4-7-9-7-9-6" />
<rect
 style="fill:#000000;fill-opacity:1;stroke:none"
 id="A1"
 class="dropzone"
 width="62.468605"
 height="62.468605"
 x="2.0577059"
 y="991.53326"
 inkscape:label="#rect3004-4-1-9-2" />
<rect
 style="fill:#e6e6e6;fill-opacity:1;stroke:none"
 id="B1"
 class="dropzone"
 width="62.468605"
 height="62.468605"
 x="64.521774"
 y="991.53326"
 inkscape:label="#rect3004-7-6-5-8" />
<rect
 style="fill:#000000;fill-opacity:1;stroke:none"
 id="C1"
 class="dropzone"
 width="62.468605"
 height="62.468605"
 x="127.12135"
 y="991.53326"
 inkscape:label="#rect3004-4-7-6-4-2" />
<rect
 style="fill:#e6e6e6;fill-opacity:1;stroke:none"
 id="D1"
 class="dropzone"
 width="62.468605"
 height="62.468605"
 x="189.72084"
 y="991.53326"
 inkscape:label="#rect3004-7-2-0-3-5" />
<rect
 style="fill:#000000;fill-opacity:1;stroke:none"
 id="E1"
 class="dropzone"
 width="62.468605"
 height="62.468605"
 x="252.18495"
 y="991.53326"
 inkscape:label="#rect3004-4-7-9-8-7-9" />
<rect
 style="fill:#e6e6e6;fill-opacity:1;stroke:none"
 id="F1"
 class="dropzone"
 width="62.468605"
 height="62.468605"
 x="314.64899"
 y="991.53326"
 inkscape:label="#rect3004-7-2-9-3-8-0" />
<rect
 style="fill:#000000;fill-opacity:1;stroke:none"
 id="G1"
 class="dropzone"
 width="62.468605"
 height="62.468605"
 x="376.97754"
 y="991.53326"
 inkscape:label="#rect3004-4-7-9-7-2-2-6" />
<rect
 style="fill:#e6e6e6;fill-opacity:1;stroke:none"
 id="H1"
 class="dropzone"
 width="62.468605"
 height="62.468605"
 x="439.42102"
 y="991.53345"
 inkscape:label="#rect3004-7-2-9-5-6-4" />
<g
 id="whitePawn8"
 class="chesspiece draggable"
 inkscape:label="Layer 1">
<path
 sodipodi:nodetypes="ccccc"
 inkscape:connector-curvature="0"
 id="path5379-3"
 d="m 18.950592,3139.9627 c 8.405541,0.058 16.811086,0.1154 25.216627,0.1731 -3.301343,-7.2511 -11.055111,-13.6126 -9.904034,-21.7535 -2.170121,0 -4.340243,0 -6.510359,0 2.074895,8.0832 -5.868158,14.3869 -8.802234,21.5804 z"
 style="fill:#ffd5d5;fill-opacity:1;stroke:#000000;stroke-width:0.40499824;stroke-linecap:butt;stroke-linejoin:round;stroke-miterlimit:3.5;stroke-opacity:0.98453603;stroke-dasharray:none;stroke-dashoffset:50" />
<path
 inkscape:connector-curvature="0"
 id="rect2994-4"
 d="m 41.239663,3110.1612 c 0,4.7665 -4.360599,8.6304 -9.739672,8.6304 -5.37908,0 -9.739679,-3.8639 -9.739679,-8.6304 0,-4.7664 4.360599,-8.6303 9.739679,-8.6303 5.379073,0 9.739672,3.8639 9.739672,8.6303 z"
 style="fill:#ffd5d5;fill-opacity:1;stroke:#000000;stroke-width:0.40499824;stroke-linecap:butt;stroke-linejoin:round;stroke-miterlimit:3.5;stroke-opacity:0.98453603;stroke-dasharray:none;stroke-dashoffset:50" />
<path
 sodipodi:nodetypes="ccccc"
 inkscape:connector-curvature="0"
 id="rect3002-1"
 d="m 12.11958,3152.6434 c 10.92761,0 27.794506,0.3568 38.722116,0.3568 0,-4.2696 0.971879,-9.5206 -3.131624,-12.8983 -10.92761,0 -21.639245,0 -32.566855,0 -3.779546,2.3072 -3.023637,8.2718 -3.023637,12.5415 z"
 style="fill:#ffd5d5;fill-opacity:1;stroke:#000000;stroke-width:0.31832072;stroke-linecap:butt;stroke-linejoin:round;stroke-miterlimit:3.5;stroke-opacity:0.98453603;stroke-dasharray:none;stroke-dashoffset:50" />
</g>
<g
 transform="translate(374.17486,-2165.3725)"
 id="whitePawn7"
 class="chesspiece draggable"
 inkscape:label="Layer 1">
<path
 sodipodi:nodetypes="ccccc"
 inkscape:connector-curvature="0"
 id="path5379-3-3"
 d="m 18.950592,3139.9627 c 8.405541,0.058 16.811086,0.1154 25.216627,0.1731 -3.301343,-7.2511 -11.055111,-13.6126 -9.904034,-21.7535 -2.170121,0 -4.340243,0 -6.510359,0 2.074895,8.0832 -5.868158,14.3869 -8.802234,21.5804 z"
 style="fill:#ffd5d5;fill-opacity:1;stroke:#000000;stroke-width:0.40499824;stroke-linecap:butt;stroke-linejoin:round;stroke-miterlimit:3.5;stroke-opacity:0.98453603;stroke-dasharray:none;stroke-dashoffset:50" />
<path
 inkscape:connector-curvature="0"
 id="rect2994-4-6"
 d="m 41.239663,3110.1612 c 0,4.7665 -4.360599,8.6304 -9.739672,8.6304 -5.37908,0 -9.739679,-3.8639 -9.739679,-8.6304 0,-4.7664 4.360599,-8.6303 9.739679,-8.6303 5.379073,0 9.739672,3.8639 9.739672,8.6303 z"
 style="fill:#ffd5d5;fill-opacity:1;stroke:#000000;stroke-width:0.40499824;stroke-linecap:butt;stroke-linejoin:round;stroke-miterlimit:3.5;stroke-opacity:0.98453603;stroke-dasharray:none;stroke-dashoffset:50" />
<path
 sodipodi:nodetypes="ccccc"
 inkscape:connector-curvature="0"
 id="rect3002-1-4"
 d="m 12.11958,3152.6434 c 10.92761,0 27.794506,0.3568 38.722116,0.3568 0,-4.2696 0.971879,-9.5206 -3.131624,-12.8983 -10.92761,0 -21.639245,0 -32.566855,0 -3.779546,2.3072 -3.023637,8.2718 -3.023637,12.5415 z"
 style="fill:#ffd5d5;fill-opacity:1;stroke:#000000;stroke-width:0.31832072;stroke-linecap:butt;stroke-linejoin:round;stroke-miterlimit:3.5;stroke-opacity:0.98453603;stroke-dasharray:none;stroke-dashoffset:50" />
</g>
<g
 transform="translate(315.12577,-2166.1394)"
 id="whitePawn6"
 class="chesspiece draggable"
 inkscape:label="Layer 1">
<path
 sodipodi:nodetypes="ccccc"
 inkscape:connector-curvature="0"
 id="path5379-3-1"
 d="m 18.950592,3139.9627 c 8.405541,0.058 16.811086,0.1154 25.216627,0.1731 -3.301343,-7.2511 -11.055111,-13.6126 -9.904034,-21.7535 -2.170121,0 -4.340243,0 -6.510359,0 2.074895,8.0832 -5.868158,14.3869 -8.802234,21.5804 z"
 style="fill:#ffd5d5;fill-opacity:1;stroke:#000000;stroke-width:0.40499824;stroke-linecap:butt;stroke-linejoin:round;stroke-miterlimit:3.5;stroke-opacity:0.98453603;stroke-dasharray:none;stroke-dashoffset:50" />
<path
 inkscape:connector-curvature="0"
 id="rect2994-4-7"
 d="m 41.239663,3110.1612 c 0,4.7665 -4.360599,8.6304 -9.739672,8.6304 -5.37908,0 -9.739679,-3.8639 -9.739679,-8.6304 0,-4.7664 4.360599,-8.6303 9.739679,-8.6303 5.379073,0 9.739672,3.8639 9.739672,8.6303 z"
 style="fill:#ffd5d5;fill-opacity:1;stroke:#000000;stroke-width:0.40499824;stroke-linecap:butt;stroke-linejoin:round;stroke-miterlimit:3.5;stroke-opacity:0.98453603;stroke-dasharray:none;stroke-dashoffset:50" />
<path
 sodipodi:nodetypes="ccccc"
 inkscape:connector-curvature="0"
 id="rect3002-1-43"
 d="m 12.11958,3152.6434 c 10.92761,0 27.794506,0.3568 38.722116,0.3568 0,-4.2696 0.971879,-9.5206 -3.131624,-12.8983 -10.92761,0 -21.639245,0 -32.566855,0 -3.779546,2.3072 -3.023637,8.2718 -3.023637,12.5415 z"
 style="fill:#ffd5d5;fill-opacity:1;stroke:#000000;stroke-width:0.31832072;stroke-linecap:butt;stroke-linejoin:round;stroke-miterlimit:3.5;stroke-opacity:0.98453603;stroke-dasharray:none;stroke-dashoffset:50" />
</g>
<g
 transform="translate(253.77609,-2167.6731)"
 id="whitePawn5"
 class="chesspiece draggable"
 inkscape:label="Layer 1">
<path
 sodipodi:nodetypes="ccccc"
 inkscape:connector-curvature="0"
 id="path5379-3-32"
 d="m 18.950592,3139.9627 c 8.405541,0.058 16.811086,0.1154 25.216627,0.1731 -3.301343,-7.2511 -11.055111,-13.6126 -9.904034,-21.7535 -2.170121,0 -4.340243,0 -6.510359,0 2.074895,8.0832 -5.868158,14.3869 -8.802234,21.5804 z"
 style="fill:#ffd5d5;fill-opacity:1;stroke:#000000;stroke-width:0.40499824;stroke-linecap:butt;stroke-linejoin:round;stroke-miterlimit:3.5;stroke-opacity:0.98453603;stroke-dasharray:none;stroke-dashoffset:50" />
<path
 inkscape:connector-curvature="0"
 id="rect2994-4-2"
 d="m 41.239663,3110.1612 c 0,4.7665 -4.360599,8.6304 -9.739672,8.6304 -5.37908,0 -9.739679,-3.8639 -9.739679,-8.6304 0,-4.7664 4.360599,-8.6303 9.739679,-8.6303 5.379073,0 9.739672,3.8639 9.739672,8.6303 z"
 style="fill:#ffd5d5;fill-opacity:1;stroke:#000000;stroke-width:0.40499824;stroke-linecap:butt;stroke-linejoin:round;stroke-miterlimit:3.5;stroke-opacity:0.98453603;stroke-dasharray:none;stroke-dashoffset:50" />
<path
 sodipodi:nodetypes="ccccc"
 inkscape:connector-curvature="0"
 id="rect3002-1-7"
 d="m 12.11958,3152.6434 c 10.92761,0 27.794506,0.3568 38.722116,0.3568 0,-4.2696 0.971879,-9.5206 -3.131624,-12.8983 -10.92761,0 -21.639245,0 -32.566855,0 -3.779546,2.3072 -3.023637,8.2718 -3.023637,12.5415 z"
 style="fill:#ffd5d5;fill-opacity:1;stroke:#000000;stroke-width:0.31832072;stroke-linecap:butt;stroke-linejoin:round;stroke-miterlimit:3.5;stroke-opacity:0.98453603;stroke-dasharray:none;stroke-dashoffset:50" />
</g>
<g
 transform="translate(189.35891,-2166.1393)"
 id="whitePawn4"
 class="chesspiece draggable"
 inkscape:label="Layer 1">
<path
 sodipodi:nodetypes="ccccc"
 inkscape:connector-curvature="0"
 id="path5379-3-8"
 d="m 18.950592,3139.9627 c 8.405541,0.058 16.811086,0.1154 25.216627,0.1731 -3.301343,-7.2511 -11.055111,-13.6126 -9.904034,-21.7535 -2.170121,0 -4.340243,0 -6.510359,0 2.074895,8.0832 -5.868158,14.3869 -8.802234,21.5804 z"
 style="fill:#ffd5d5;fill-opacity:1;stroke:#000000;stroke-width:0.40499824;stroke-linecap:butt;stroke-linejoin:round;stroke-miterlimit:3.5;stroke-opacity:0.98453603;stroke-dasharray:none;stroke-dashoffset:50" />
<path
 inkscape:connector-curvature="0"
 id="rect2994-4-4"
 d="m 41.239663,3110.1612 c 0,4.7665 -4.360599,8.6304 -9.739672,8.6304 -5.37908,0 -9.739679,-3.8639 -9.739679,-8.6304 0,-4.7664 4.360599,-8.6303 9.739679,-8.6303 5.379073,0 9.739672,3.8639 9.739672,8.6303 z"
 style="fill:#ffd5d5;fill-opacity:1;stroke:#000000;stroke-width:0.40499824;stroke-linecap:butt;stroke-linejoin:round;stroke-miterlimit:3.5;stroke-opacity:0.98453603;stroke-dasharray:none;stroke-dashoffset:50" />
<path
 sodipodi:nodetypes="ccccc"
 inkscape:connector-curvature="0"
 id="rect3002-1-1"
 d="m 12.11958,3152.6434 c 10.92761,0 27.794506,0.3568 38.722116,0.3568 0,-4.2696 0.971879,-9.5206 -3.131624,-12.8983 -10.92761,0 -21.639245,0 -32.566855,0 -3.779546,2.3072 -3.023637,8.2718 -3.023637,12.5415 z"
 style="fill:#ffd5d5;fill-opacity:1;stroke:#000000;stroke-width:0.31832072;stroke-linecap:butt;stroke-linejoin:round;stroke-miterlimit:3.5;stroke-opacity:0.98453603;stroke-dasharray:none;stroke-dashoffset:50" />
</g>
<g
 transform="translate(130.30983,-2167.6731)"
 id="whitePawn3"
 class="chesspiece draggable"
 inkscape:label="Layer 1">
<path
 sodipodi:nodetypes="ccccc"
 inkscape:connector-curvature="0"
 id="path5379-3-4"
 d="m 18.950592,3139.9627 c 8.405541,0.058 16.811086,0.1154 25.216627,0.1731 -3.301343,-7.2511 -11.055111,-13.6126 -9.904034,-21.7535 -2.170121,0 -4.340243,0 -6.510359,0 2.074895,8.0832 -5.868158,14.3869 -8.802234,21.5804 z"
 style="fill:#ffd5d5;fill-opacity:1;stroke:#000000;stroke-width:0.40499824;stroke-linecap:butt;stroke-linejoin:round;stroke-miterlimit:3.5;stroke-opacity:0.98453603;stroke-dasharray:none;stroke-dashoffset:50" />
<path
 inkscape:connector-curvature="0"
 id="rect2994-4-8"
 d="m 41.239663,3110.1612 c 0,4.7665 -4.360599,8.6304 -9.739672,8.6304 -5.37908,0 -9.739679,-3.8639 -9.739679,-8.6304 0,-4.7664 4.360599,-8.6303 9.739679,-8.6303 5.379073,0 9.739672,3.8639 9.739672,8.6303 z"
 style="fill:#ffd5d5;fill-opacity:1;stroke:#000000;stroke-width:0.40499824;stroke-linecap:butt;stroke-linejoin:round;stroke-miterlimit:3.5;stroke-opacity:0.98453603;stroke-dasharray:none;stroke-dashoffset:50" />
<path
 sodipodi:nodetypes="ccccc"
 inkscape:connector-curvature="0"
 id="rect3002-1-2"
 d="m 12.11958,3152.6434 c 10.92761,0 27.794506,0.3568 38.722116,0.3568 0,-4.2696 0.971879,-9.5206 -3.131624,-12.8983 -10.92761,0 -21.639245,0 -32.566855,0 -3.779546,2.3072 -3.023637,8.2718 -3.023637,12.5415 z"
 style="fill:#ffd5d5;fill-opacity:1;stroke:#000000;stroke-width:0.31832072;stroke-linecap:butt;stroke-linejoin:round;stroke-miterlimit:3.5;stroke-opacity:0.98453603;stroke-dasharray:none;stroke-dashoffset:50" />
</g>
<g
 transform="translate(64.358904,-2165.3725)"
 id="whitePawn2"
 class="chesspiece draggable"
 inkscape:label="Layer 1">
<path
 sodipodi:nodetypes="ccccc"
 inkscape:connector-curvature="0"
 id="path5379-3-9"
 d="m 18.950592,3139.9627 c 8.405541,0.058 16.811086,0.1154 25.216627,0.1731 -3.301343,-7.2511 -11.055111,-13.6126 -9.904034,-21.7535 -2.170121,0 -4.340243,0 -6.510359,0 2.074895,8.0832 -5.868158,14.3869 -8.802234,21.5804 z"
 style="fill:#ffd5d5;fill-opacity:1;stroke:#000000;stroke-width:0.40499824;stroke-linecap:butt;stroke-linejoin:round;stroke-miterlimit:3.5;stroke-opacity:0.98453603;stroke-dasharray:none;stroke-dashoffset:50" />
<path
 inkscape:connector-curvature="0"
 id="rect2994-4-5"
 d="m 41.239663,3110.1612 c 0,4.7665 -4.360599,8.6304 -9.739672,8.6304 -5.37908,0 -9.739679,-3.8639 -9.739679,-8.6304 0,-4.7664 4.360599,-8.6303 9.739679,-8.6303 5.379073,0 9.739672,3.8639 9.739672,8.6303 z"
 style="fill:#ffd5d5;fill-opacity:1;stroke:#000000;stroke-width:0.40499824;stroke-linecap:butt;stroke-linejoin:round;stroke-miterlimit:3.5;stroke-opacity:0.98453603;stroke-dasharray:none;stroke-dashoffset:50" />
<path
 sodipodi:nodetypes="ccccc"
 inkscape:connector-curvature="0"
 id="rect3002-1-76"
 d="m 12.11958,3152.6434 c 10.92761,0 27.794506,0.3568 38.722116,0.3568 0,-4.2696 0.971879,-9.5206 -3.131624,-12.8983 -10.92761,0 -21.639245,0 -32.566855,0 -3.779546,2.3072 -3.023637,8.2718 -3.023637,12.5415 z"
 style="fill:#ffd5d5;fill-opacity:1;stroke:#000000;stroke-width:0.31832072;stroke-linecap:butt;stroke-linejoin:round;stroke-miterlimit:3.5;stroke-opacity:0.98453603;stroke-dasharray:none;stroke-dashoffset:50" />
</g>
<g
 transform="translate(3.7760842,-2168.4399)"
 id="whitePawn1"
 class="chesspiece draggable"
 inkscape:label="Layer 1">
<path
 sodipodi:nodetypes="ccccc"
 inkscape:connector-curvature="0"
 id="path5379-3-38"
 d="m 18.950592,3139.9627 c 8.405541,0.058 16.811086,0.1154 25.216627,0.1731 -3.301343,-7.2511 -11.055111,-13.6126 -9.904034,-21.7535 -2.170121,0 -4.340243,0 -6.510359,0 2.074895,8.0832 -5.868158,14.3869 -8.802234,21.5804 z"
 style="fill:#ffd5d5;fill-opacity:1;stroke:#000000;stroke-width:0.40499824;stroke-linecap:butt;stroke-linejoin:round;stroke-miterlimit:3.5;stroke-opacity:0.98453603;stroke-dasharray:none;stroke-dashoffset:50" />
<path
 inkscape:connector-curvature="0"
 id="rect2994-4-57"
 d="m 41.239663,3110.1612 c 0,4.7665 -4.360599,8.6304 -9.739672,8.6304 -5.37908,0 -9.739679,-3.8639 -9.739679,-8.6304 0,-4.7664 4.360599,-8.6303 9.739679,-8.6303 5.379073,0 9.739672,3.8639 9.739672,8.6303 z"
 style="fill:#ffd5d5;fill-opacity:1;stroke:#000000;stroke-width:0.40499824;stroke-linecap:butt;stroke-linejoin:round;stroke-miterlimit:3.5;stroke-opacity:0.98453603;stroke-dasharray:none;stroke-dashoffset:50" />
<path
 sodipodi:nodetypes="ccccc"
 inkscape:connector-curvature="0"
 id="rect3002-1-6"
 d="m 12.11958,3152.6434 c 10.92761,0 27.794506,0.3568 38.722116,0.3568 0,-4.2696 0.971879,-9.5206 -3.131624,-12.8983 -10.92761,0 -21.639245,0 -32.566855,0 -3.779546,2.3072 -3.023637,8.2718 -3.023637,12.5415 z"
 style="fill:#ffd5d5;fill-opacity:1;stroke:#000000;stroke-width:0.31832072;stroke-linecap:butt;stroke-linejoin:round;stroke-miterlimit:3.5;stroke-opacity:0.98453603;stroke-dasharray:none;stroke-dashoffset:50" />
</g>
<g
 transform="translate(440.52949,553.25417)"
 id="whiteRook2"
 class="chesspiece draggable"
 inkscape:label="Layer 1">
<path
 sodipodi:nodetypes="ccccc"
 inkscape:connector-curvature="0"
 id="path5379"
 d="m 19.164173,457.97417 24.363471,-0.18711 3.207655,24.82314 -30.137248,-0.0935 z"
 style="fill:#ffd5d5;fill-opacity:1;stroke:#000000;stroke-width:0.44588459;stroke-linecap:butt;stroke-linejoin:round;stroke-miterlimit:3.5;stroke-opacity:0.98453603;stroke-dasharray:none;stroke-dashoffset:50" />
<path
 sodipodi:nodetypes="ccccc"
 inkscape:connector-curvature="0"
 id="rect5449"
 d="m 13.083803,446.84895 36.538917,0 -1.283062,11.11695 -33.652029,-0.0935 z"
 style="fill:#ffd5d5;fill-opacity:1;stroke:#000000;stroke-width:0.4675346;stroke-linecap:butt;stroke-linejoin:round;stroke-miterlimit:3.5;stroke-opacity:0.98453603;stroke-dashoffset:50" />
<rect
 y="442.34985"
 x="13.069632"
 height="4.3972631"
 width="7.2172222"
 id="rect5454"
 style="fill:#ffd5d5;fill-opacity:1;stroke:#000000;stroke-width:0.44588459;stroke-linecap:butt;stroke-linejoin:round;stroke-miterlimit:3.5;stroke-opacity:0.98453603;stroke-dasharray:none;stroke-dashoffset:50" />
<rect
 y="442.30307"
 x="23.253931"
 height="4.3972631"
 width="7.2172222"
 id="rect5454-1"
 style="fill:#ffd5d5;fill-opacity:1;stroke:#000000;stroke-width:0.44588459;stroke-linecap:butt;stroke-linejoin:round;stroke-miterlimit:3.5;stroke-opacity:0.98453603;stroke-dasharray:none;stroke-dashoffset:50" />
<rect
 y="442.30307"
 x="42.018715"
 height="4.3972631"
 width="7.2172222"
 id="rect5454-7"
 style="fill:#ffd5d5;fill-opacity:1;stroke:#000000;stroke-width:0.44588459;stroke-linecap:butt;stroke-linejoin:round;stroke-miterlimit:3.5;stroke-opacity:0.98453603;stroke-dasharray:none;stroke-dashoffset:50" />
<rect
 y="442.30307"
 x="33.197662"
 height="4.3972631"
 width="7.2172222"
 id="rect5454-17"
 style="fill:#ffd5d5;fill-opacity:1;stroke:#000000;stroke-width:0.44588459;stroke-linecap:butt;stroke-linejoin:round;stroke-miterlimit:3.5;stroke-opacity:0.98453603;stroke-dasharray:none;stroke-dashoffset:50" />
<path
 sodipodi:nodetypes="ccccc"
 inkscape:connector-curvature="0"
 id="rect3002"
 d="m 9.5236162,495.76948 c 12.5961078,0 32.0383488,0.37522 44.6344558,0.37522 0,-4.4898 1.120276,-10.01147 -3.609778,-13.56319 -12.596108,0 -24.943265,0 -37.539373,0 -4.3566298,2.42606 -3.4853048,8.69817 -3.4853048,13.18797 z"
 style="fill:#ffd5d5;fill-opacity:1;stroke:#000000;stroke-width:0.3504566;stroke-linecap:butt;stroke-linejoin:round;stroke-miterlimit:3.5;stroke-opacity:0.98453603;stroke-dasharray:none;stroke-dashoffset:50" />
</g>
<g
 transform="translate(2.1074527,554.55566)"
 id="whiteRook1"
 class="chesspiece draggable"
 inkscape:label="Layer 1">
<path
 sodipodi:nodetypes="ccccc"
 inkscape:connector-curvature="0"
 id="path5379-4"
 d="m 19.164173,457.97417 24.363471,-0.18711 3.207655,24.82314 -30.137248,-0.0935 z"
 style="fill:#ffd5d5;fill-opacity:1;stroke:#000000;stroke-width:0.44588459;stroke-linecap:butt;stroke-linejoin:round;stroke-miterlimit:3.5;stroke-opacity:0.98453603;stroke-dasharray:none;stroke-dashoffset:50" />
<path
 sodipodi:nodetypes="ccccc"
 inkscape:connector-curvature="0"
 id="rect5449-9"
 d="m 13.083803,446.84895 36.538917,0 -1.283062,11.11695 -33.652029,-0.0935 z"
 style="fill:#ffd5d5;fill-opacity:1;stroke:#000000;stroke-width:0.4675346;stroke-linecap:butt;stroke-linejoin:round;stroke-miterlimit:3.5;stroke-opacity:0.98453603;stroke-dashoffset:50" />
<rect
 y="442.34985"
 x="13.069632"
 height="4.3972631"
 width="7.2172222"
 id="rect5454-2"
 style="fill:#ffd5d5;fill-opacity:1;stroke:#000000;stroke-width:0.44588459;stroke-linecap:butt;stroke-linejoin:round;stroke-miterlimit:3.5;stroke-opacity:0.98453603;stroke-dasharray:none;stroke-dashoffset:50" />
<rect
 y="442.30307"
 x="23.253931"
 height="4.3972631"
 width="7.2172222"
 id="rect5454-1-8"
 style="fill:#ffd5d5;fill-opacity:1;stroke:#000000;stroke-width:0.44588459;stroke-linecap:butt;stroke-linejoin:round;stroke-miterlimit:3.5;stroke-opacity:0.98453603;stroke-dasharray:none;stroke-dashoffset:50" />
<rect
 y="442.30307"
 x="42.018715"
 height="4.3972631"
 width="7.2172222"
 id="rect5454-7-6"
 style="fill:#ffd5d5;fill-opacity:1;stroke:#000000;stroke-width:0.44588459;stroke-linecap:butt;stroke-linejoin:round;stroke-miterlimit:3.5;stroke-opacity:0.98453603;stroke-dasharray:none;stroke-dashoffset:50" />
<rect
 y="442.30307"
 x="33.197662"
 height="4.3972631"
 width="7.2172222"
 id="rect5454-17-8"
 style="fill:#ffd5d5;fill-opacity:1;stroke:#000000;stroke-width:0.44588459;stroke-linecap:butt;stroke-linejoin:round;stroke-miterlimit:3.5;stroke-opacity:0.98453603;stroke-dasharray:none;stroke-dashoffset:50" />
<path
 sodipodi:nodetypes="ccccc"
 inkscape:connector-curvature="0"
 id="rect3002-4"
 d="m 9.5236162,495.76948 c 12.5961078,0 32.0383488,0.37522 44.6344558,0.37522 0,-4.4898 1.120276,-10.01147 -3.609778,-13.56319 -12.596108,0 -24.943265,0 -37.539373,0 -4.3566298,2.42606 -3.4853048,8.69817 -3.4853048,13.18797 z"
 style="fill:#ffd5d5;fill-opacity:1;stroke:#000000;stroke-width:0.3504566;stroke-linecap:butt;stroke-linejoin:round;stroke-miterlimit:3.5;stroke-opacity:0.98453603;stroke-dasharray:none;stroke-dashoffset:50" />
</g>
</g>
</svg>
