<?xml version="1.0" encoding="UTF-8" standalone="no"?>
<!-- Created with Inkscape (http://www.inkscape.org/) -->

<svg
 xmlns:dc="http://purl.org/dc/elements/1.1/"
 xmlns:cc="http://creativecommons.org/ns#"
 xmlns:rdf="http://www.w3.org/1999/02/22-rdf-syntax-ns#"
 xmlns:svg="http://www.w3.org/2000/svg"
 xmlns="http://www.w3.org/2000/svg"
 version="1.1"
 width="500"
 height="500"
 id="svg2">
<defs
 id="defs4" />
<metadata
 id="metadata7">
<rdf:RDF>
<cc:Work
 rdf:about="">
<dc:format>image/svg+xml</dc:format>
<dc:type
 rdf:resource="http://purl.org/dc/dcmitype/StillImage" />
<dc:title></dc:title>
</cc:Work>
</rdf:RDF>
</metadata>
<g
 id="layer1">
<rect
 width="62.468605"
 height="62.468605"
 x="1.1230643"
 y="1.4215219"
 id="A8"
 style="fill:#e6e6e6;fill-opacity:1;stroke:none" />
<rect
 width="62.468605"
 height="62.468605"
 x="63.610096"
 y="1.4214609"
 id="B8"
 style="fill:#000000;fill-opacity:1;stroke:none" />
<rect
 width="62.468605"
 height="62.468605"
 x="126.07412"
 y="1.4214609"
 id="C8"
 style="fill:#e6e6e6;fill-opacity:1;stroke:none" />
<rect
 width="62.468605"
 height="62.468605"
 x="188.67366"
 y="1.4214609"
 id="D8"
 style="fill:#000000;fill-opacity:1;stroke:none" />
<rect
 width="62.468605"
 height="62.468605"
 x="251.27324"
 y="1.4214609"
 id="E8"
 style="fill:#e6e6e6;fill-opacity:1;stroke:none" />
<rect
 width="62.468605"
 height="62.468605"
 x="313.73727"
 y="1.4214609"
 id="F8"
 style="fill:#000000;fill-opacity:1;stroke:none" />
<rect
 width="62.468605"
 height="62.468605"
 x="376.20132"
 y="1.4214609"
 id="G8"
 style="fill:#e6e6e6;fill-opacity:1;stroke:none" />
<rect
 width="62.468605"
 height="62.468605"
 x="438.52982"
 y="1.4214609"
 id="H8"
 style="fill:#000000;fill-opacity:1;stroke:none" />
<rect
 width="62.468605"
 height="62.468605"
 x="1.166445"
 y="63.886425"
 id="A7"
 style="fill:#000000;fill-opacity:1;stroke:none" />
<rect
 width="62.468605"
 height="62.468605"
 x="63.630512"
 y="63.886425"
 id="B7"
 style="fill:#e6e6e6;fill-opacity:1;stroke:none" />
<rect
 width="62.468605"
 height="62.468605"
 x="126.23006"
 y="63.886425"
 id="C7"
 style="fill:#000000;fill-opacity:1;stroke:none" />
<rect
 width="62.468605"
 height="62.468605"
 x="188.82957"
 y="63.886425"
 id="D7"
 style="fill:#e6e6e6;fill-opacity:1;stroke:none" />
<rect
 width="62.468605"
 height="62.468605"
 x="251.29366"
 y="63.886425"
 id="E7"
 style="fill:#000000;fill-opacity:1;stroke:none" />
<rect
 width="62.468605"
 height="62.468605"
 x="313.7576"
 y="63.886425"
 id="F7"
 style="fill:#e6e6e6;fill-opacity:1;stroke:none" />
<rect
 width="62.468605"
 height="62.468605"
 x="376.0864"
 y="63.886425"
 id="G7"
 style="fill:#000000;fill-opacity:1;stroke:none" />
<rect
 width="62.468605"
 height="62.468605"
 x="438.52957"
 y="63.886608"
 id="H7"
 style="fill:#e6e6e6;fill-opacity:1;stroke:none" />
<rect
 width="62.468605"
 height="62.468605"
 x="1.1345236"
 y="126.38338"
 id="A6"
 style="fill:#e6e6e6;fill-opacity:1;stroke:none" />
<rect
 width="62.468605"
 height="62.468605"
 x="63.621571"
 y="126.38326"
 id="B6"
 style="fill:#000000;fill-opacity:1;stroke:none" />
<rect
 width="62.468605"
 height="62.468605"
 x="126.08566"
 y="126.38326"
 id="C6"
 style="fill:#e6e6e6;fill-opacity:1;stroke:none" />
<rect
 width="62.468605"
 height="62.468605"
 x="188.68513"
 y="126.38326"
 id="D6"
 style="fill:#000000;fill-opacity:1;stroke:none" />
<rect
 width="62.468605"
 height="62.468605"
 x="251.28471"
 y="126.38326"
 id="E6"
 style="fill:#e6e6e6;fill-opacity:1;stroke:none" />
<rect
 width="62.468605"
 height="62.468605"
 x="313.74872"
 y="126.38326"
 id="F6"
 style="fill:#000000;fill-opacity:1;stroke:none" />
<rect
 width="62.468605"
 height="62.468605"
 x="376.21274"
 y="126.38326"
 id="G6"
 style="fill:#e6e6e6;fill-opacity:1;stroke:none" />
<rect
 width="62.468605"
 height="62.468605"
 x="438.54135"
 y="126.38326"
 id="H6"
 style="fill:#000000;fill-opacity:1;stroke:none" />
<rect
 width="62.468605"
 height="62.468605"
 x="1.1779044"
 y="188.84828"
 id="A5"
 style="fill:#000000;fill-opacity:1;stroke:none" />
<rect
 width="62.468605"
 height="62.468605"
 x="63.641956"
 y="188.84828"
 id="B5"
 style="fill:#e6e6e6;fill-opacity:1;stroke:none" />
<rect
 width="62.468605"
 height="62.468605"
 x="126.24154"
 y="188.84828"
 id="C5"
 style="fill:#000000;fill-opacity:1;stroke:none" />
<rect
 width="62.468605"
 height="62.468605"
 x="188.84099"
 y="188.84828"
 id="D5"
 style="fill:#e6e6e6;fill-opacity:1;stroke:none" />
<rect
 width="62.468605"
 height="62.468605"
 x="251.30513"
 y="188.84828"
 id="E5"
 style="fill:#000000;fill-opacity:1;stroke:none" />
<rect
 width="62.468605"
 height="62.468605"
 x="313.76913"
 y="188.84828"
 id="F5"
 style="fill:#e6e6e6;fill-opacity:1;stroke:none" />
<rect
 width="62.468605"
 height="62.468605"
 x="376.09781"
 y="188.84828"
 id="G5"
 style="fill:#000000;fill-opacity:1;stroke:none" />
<rect
 width="62.468605"
 height="62.468605"
 x="438.54105"
 y="188.8484"
 id="H5"
 style="fill:#e6e6e6;fill-opacity:1;stroke:none" />
<rect
 width="62.468605"
 height="62.468605"
 x="1.2359946"
 y="251.19258"
 id="A4"
 style="fill:#e6e6e6;fill-opacity:1;stroke:none" />
<rect
 width="62.468605"
 height="62.468605"
 x="63.723072"
 y="251.19246"
 id="B4"
 style="fill:#000000;fill-opacity:1;stroke:none" />
<rect
 width="62.468605"
 height="62.468605"
 x="126.18709"
 y="251.19246"
 id="C4"
 style="fill:#e6e6e6;fill-opacity:1;stroke:none" />
<rect
 width="62.468605"
 height="62.468605"
 x="188.7867"
 y="251.19246"
 id="D4"
 style="fill:#000000;fill-opacity:1;stroke:none" />
<rect
 width="62.468605"
 height="62.468605"
 x="251.38618"
 y="251.19246"
 id="E4"
 style="fill:#e6e6e6;fill-opacity:1;stroke:none" />
<rect
 width="62.468605"
 height="62.468605"
 x="313.85025"
 y="251.19246"
 id="F4"
 style="fill:#000000;fill-opacity:1;stroke:none" />
<rect
 width="62.468605"
 height="62.468605"
 x="376.31424"
 y="251.19246"
 id="G4"
 style="fill:#e6e6e6;fill-opacity:1;stroke:none" />
<rect
 width="62.468605"
 height="62.468605"
 x="438.64291"
 y="251.19246"
 id="H4"
 style="fill:#000000;fill-opacity:1;stroke:none" />
<rect
 width="62.468605"
 height="62.468605"
 x="1.2793753"
 y="313.65729"
 id="A3"
 style="fill:#000000;fill-opacity:1;stroke:none" />
<rect
 width="62.468605"
 height="62.468605"
 x="63.743458"
 y="313.65729"
 id="B3"
 style="fill:#e6e6e6;fill-opacity:1;stroke:none" />
<rect
 width="62.468605"
 height="62.468605"
 x="126.34298"
 y="313.65729"
 id="C3"
 style="fill:#000000;fill-opacity:1;stroke:none" />
<rect
 width="62.468605"
 height="62.468605"
 x="188.94255"
 y="313.65729"
 id="D3"
 style="fill:#e6e6e6;fill-opacity:1;stroke:none" />
<rect
 width="62.468605"
 height="62.468605"
 x="251.40657"
 y="313.65729"
 id="E3"
 style="fill:#000000;fill-opacity:1;stroke:none" />
<rect
 width="62.468605"
 height="62.468605"
 x="315.40439"
 y="312.89044"
 id="F3"
 style="fill:#e6e6e6;fill-opacity:1;stroke:none" />
<rect
 width="62.468605"
 height="62.468605"
 x="376.19925"
 y="313.65729"
 id="G3"
 style="fill:#000000;fill-opacity:1;stroke:none" />
<rect
 width="62.468605"
 height="62.468605"
 x="438.64267"
 y="313.65753"
 id="H3"
 style="fill:#e6e6e6;fill-opacity:1;stroke:none" />
<rect
 width="62.468605"
 height="62.468605"
 x="1.2474997"
 y="376.1543"
 id="A2"
 style="fill:#e6e6e6;fill-opacity:1;stroke:none" />
<rect
 width="62.468605"
 height="62.468605"
 x="63.734547"
 y="376.15424"
 id="B2"
 style="fill:#000000;fill-opacity:1;stroke:none" />
<rect
 width="62.468605"
 height="62.468605"
 x="126.1986"
 y="376.15424"
 id="C2"
 style="fill:#e6e6e6;fill-opacity:1;stroke:none" />
<rect
 width="62.468605"
 height="62.468605"
 x="188.79811"
 y="376.15424"
 id="D2"
 style="fill:#000000;fill-opacity:1;stroke:none" />
<rect
 width="62.468605"
 height="62.468605"
 x="251.39763"
 y="376.15424"
 id="E2"
 style="fill:#e6e6e6;fill-opacity:1;stroke:none" />
<rect
 width="62.468605"
 height="62.468605"
 x="313.86172"
 y="376.15424"
 id="F2"
 style="fill:#000000;fill-opacity:1;stroke:none" />
<rect
 width="62.468605"
 height="62.468605"
 x="376.32565"
 y="376.15424"
 id="G2"
 style="fill:#e6e6e6;fill-opacity:1;stroke:none" />
<rect
 width="62.468605"
 height="62.468605"
 x="438.65445"
 y="376.15424"
 id="H2"
 style="fill:#000000;fill-opacity:1;stroke:none" />
<rect
 width="62.468605"
 height="62.468605"
 x="1.2908347"
 y="438.61914"
 id="A1"
 style="fill:#000000;fill-opacity:1;stroke:none" />
<rect
 width="62.468605"
 height="62.468605"
 x="63.754902"
 y="438.61914"
 id="B1"
 style="fill:#e6e6e6;fill-opacity:1;stroke:none" />
<rect
 width="62.468605"
 height="62.468605"
 x="126.35448"
 y="438.61914"
 id="C1"
 style="fill:#000000;fill-opacity:1;stroke:none" />
<rect
 width="62.468605"
 height="62.468605"
 x="188.95396"
 y="438.61914"
 id="D1"
 style="fill:#e6e6e6;fill-opacity:1;stroke:none" />
<rect
 width="62.468605"
 height="62.468605"
 x="251.41808"
 y="438.61914"
 id="E1"
 style="fill:#000000;fill-opacity:1;stroke:none" />
<rect
 width="62.468605"
 height="62.468605"
 x="313.88211"
 y="438.61914"
 id="F1"
 style="fill:#e6e6e6;fill-opacity:1;stroke:none" />
<rect
 width="62.468605"
 height="62.468605"
 x="376.21066"
 y="438.61914"
 id="G1"
 style="fill:#000000;fill-opacity:1;stroke:none" />
<rect
 width="62.468605"
 height="62.468605"
 x="438.65414"
 y="438.61932"
 id="H1"
 style="fill:#e6e6e6;fill-opacity:1;stroke:none" />
</g>
</svg>
