<?xml version="1.0" encoding="UTF-8" standalone="no"?>
<!-- Created with Inkscape (http://www.inkscape.org/) -->

<svg
 xmlns:dc="http://purl.org/dc/elements/1.1/"
 xmlns:cc="http://creativecommons.org/ns#"
 xmlns:rdf="http://www.w3.org/1999/02/22-rdf-syntax-ns#"
 xmlns:svg="http://www.w3.org/2000/svg"
 xmlns="http://www.w3.org/2000/svg"
 version="1.1"
 width="62.5"
 height="62.5"
 id="svg3297">
<defs
 id="defs3299" />
<metadata
 id="metadata3302">
<rdf:RDF>
<cc:Work
 rdf:about="">
<dc:format>image/svg+xml</dc:format>
<dc:type
 rdf:resource="http://purl.org/dc/dcmitype/StillImage" />
<dc:title></dc:title>
</cc:Work>
</rdf:RDF>
</metadata>
<g
 transform="translate(0,-989.86218)"
 id="layer1">
<g
 transform="matrix(0.37182432,0,0,0.48727711,-545.05741,836.59105)"
 id="g67023">
<path
 d="m 1510.813,344.529 c 0,4.852 -3.934,8.784 -8.783,8.784 -4.852,0 -8.783,-3.933 -8.783,-8.784 0,-4.851 3.932,-8.783 8.783,-8.783 4.849,-10e-4 8.783,3.932 8.783,8.783 z"
 id="path67025"
 style="fill:#ffffff;stroke:#ffffff;stroke-width:0.2277;stroke-linecap:round;stroke-linejoin:round" />
<path
 d="m 1535.635,333.514 c 0,4.852 -3.932,8.784 -8.781,8.784 -4.852,0 -8.783,-3.933 -8.783,-8.784 0,-4.851 3.932,-8.783 8.783,-8.783 4.849,0 8.781,3.932 8.781,8.783 z"
 id="path67027"
 style="fill:#ffffff;stroke:#ffffff;stroke-width:0.2277;stroke-linecap:round;stroke-linejoin:round" />
<path
 d="m 1561.647,330.737 c 0,4.851 -3.932,8.783 -8.781,8.783 -4.852,0 -8.783,-3.933 -8.783,-8.783 0,-4.852 3.932,-8.784 8.783,-8.784 4.849,-10e-4 8.781,3.932 8.781,8.784 z"
 id="path67029"
 style="fill:#ffffff;stroke:#ffffff;stroke-width:0.2277;stroke-linecap:round;stroke-linejoin:round" />
<path
 d="m 1587.911,335.787 c 0,4.851 -3.932,8.783 -8.781,8.783 -4.852,0 -8.783,-3.933 -8.783,-8.783 0,-4.852 3.932,-8.784 8.783,-8.784 4.849,0 8.781,3.933 8.781,8.784 z"
 id="path67031"
 style="fill:#ffffff;stroke:#ffffff;stroke-width:0.2277;stroke-linecap:round;stroke-linejoin:round" />
<path
 d="m 1507.186,384.802 c 29.277,-5.167 70.566,-5.167 91.234,0 l 5.625,-44.874 -22.09,32.843 -1.012,-42.42 -18.186,43.476 -10.082,-49.4 -9.828,48.643 -18.188,-43.683 -0.252,46.163 -22.092,-33.601 4.871,42.853 z"
 id="path67033"
 style="fill:#ffffff;stroke:#ffffff;stroke-width:1;stroke-linejoin:round" />
<path
 d="m 1507.186,384.802 c 0,6.89 4.156,7.647 7.602,14.537 3.443,5.167 4.455,2.688 2.732,11.3 -5.168,3.444 -5.168,8.611 -5.168,8.611 -5.166,5.168 1.723,10.612 1.723,10.612 22.389,3.445 54.814,3.445 77.203,0 0,0 5.166,-5.444 0,-10.612 0,0 1.723,-5.167 -3.443,-8.611 -1.723,-8.612 0.297,-6.891 3.742,-12.058 3.443,-6.89 6.59,-6.89 6.59,-13.779 -29.278,-5.167 -61.704,-5.167 -90.981,0 z"
 id="path67035"
 style="fill:#ffffff;stroke:#ffffff;stroke-width:1;stroke-linejoin:round" />
<path
 d="m 1612.407,344.373 c 0,4.852 -3.932,8.784 -8.781,8.784 -4.852,0 -8.783,-3.933 -8.783,-8.784 0,-4.851 3.932,-8.783 8.783,-8.783 4.849,0 8.781,3.932 8.781,8.783 z"
 id="path67037"
 style="fill:#ffffff;stroke:#ffffff;stroke-width:0.2277;stroke-linecap:round;stroke-linejoin:round" />
<g
 transform="matrix(3.067229,0,0,3.067558,-1332.787,-2735.3764)"
 id="g67039">
<path
 d="m 926.332,1004.07 c 0,1.105 -0.895,2 -2,2 -1.105,0 -2,-0.895 -2,-2 0,-1.105 0.895,-2 2,-2 1.105,0 2,0.895 2,2 z"
 id="path67041"
 style="stroke:#000000;stroke-width:0.32600001;stroke-linecap:round;stroke-linejoin:round" />
<path
 d="m 942.832,999.57 c 0,1.104 -0.895,2 -2,2 -1.105,0 -2,-0.896 -2,-2 0,-1.105 0.895,-2 2,-2 1.105,0 2,0.895 2,2 z"
 id="path67043"
 style="stroke:#000000;stroke-width:0.32600001;stroke-linecap:round;stroke-linejoin:round" />
<path
 d="m 959.332,1004.07 c 0,1.105 -0.895,2 -2,2 -1.105,0 -2,-0.895 -2,-2 0,-1.105 0.895,-2 2,-2 1.105,0 2,0.895 2,2 z"
 id="path67045"
 style="stroke:#000000;stroke-width:0.32600001;stroke-linecap:round;stroke-linejoin:round" />
<path
 d="m 934.332,1000.57 c 0,1.105 -0.895,2 -2,2 -1.104,0 -2,-0.895 -2,-2 0,-1.105 0.896,-2 2,-2 1.104,0 2,0.895 2,2 z"
 id="path67047"
 style="stroke:#000000;stroke-width:0.32600001;stroke-linecap:round;stroke-linejoin:round" />
<path
 d="m 951.331,1001.07 c 0,1.105 -0.895,2 -1.999,2 -1.105,0 -2,-0.896 -2,-2 0,-1.104 0.895,-2 2,-2 1.104,0 1.999,0.895 1.999,2 z"
 id="path67049"
 style="stroke:#000000;stroke-width:0.32600001;stroke-linecap:round;stroke-linejoin:round" />
<path
 d="m 927.331,1018.07 c 8.5,-1.5 21,-1.5 27,0 l 1.999,-12 -6.999,11 v -14 l -5.5,13.5 -3,-15 -3,15 -5.5,-14 v 14.5 l -7,-11 2,12 z"
 id="path67051"
 style="stroke:#000000;stroke-width:0.32600001;stroke-linejoin:round" />
<path
 d="m 927.331,1018.07 c 0,2 1.5,2 2.5,4 1,1.5 1,1 0.5,3.5 -1.5,1 -1.5,2.5 -1.5,2.5 -1.5,1.5 0.5,2.5 0.5,2.5 6.5,1 16.5,1 23,0 0,0 1.5,-1 0,-2.5 0,0 0.5,-1.5 -1,-2.5 -0.5,-2.5 -0.5,-2 0.5,-3.5 1,-2 2.5,-2 2.5,-4 -8.499,-1.5 -18.499,-1.5 -27,0 z"
 id="path67053"
 style="stroke:#000000;stroke-width:0.32600001;stroke-linejoin:round" />
<path
 d="m 929.831,1022.07 c 3.5,-1 18.5,-1 22,0"
 id="path67055"
 style="fill:none;stroke:#ffffff;stroke-width:0.32600001;stroke-linecap:round;stroke-linejoin:round" />
<path
 d="m 930.331,1025.57 c 6,-1 15,-1 21,0"
 id="path67057"
 style="fill:none;stroke:#ffffff;stroke-width:0.32600001;stroke-linecap:round;stroke-linejoin:round" />
<path
 d="m 928.832,1028.07 c 5,-1 18.5,-1 23.5,0"
 id="path67059"
 style="fill:none;stroke:#ffffff;stroke-width:0.32600001;stroke-linecap:round;stroke-linejoin:round" />
</g>
</g>
</g>
</svg>
