<?xml version="1.0" encoding="UTF-8" standalone="no"?>
<!-- Created with Inkscape (http://www.inkscape.org/) -->

<svg
 xmlns:dc="http://purl.org/dc/elements/1.1/"
 xmlns:cc="http://creativecommons.org/ns#"
 xmlns:rdf="http://www.w3.org/1999/02/22-rdf-syntax-ns#"
 xmlns:svg="http://www.w3.org/2000/svg"
 xmlns="http://www.w3.org/2000/svg"
 version="1.1"
 width="62.5"
 height="62.5"
 id="svg3419">
<defs
 id="defs3421" />
<metadata
 id="metadata3424">
<rdf:RDF>
<cc:Work
 rdf:about="">
<dc:format>image/svg+xml</dc:format>
<dc:type
 rdf:resource="http://purl.org/dc/dcmitype/StillImage" />
<dc:title></dc:title>
</cc:Work>
</rdf:RDF>
</metadata>
<g
 transform="translate(0,-989.86218)"
 id="layer1">
<g
 transform="matrix(0.44366126,0,0,0.58311357,112.47367,210.44035)"
 id="g46345">
<path
 d="m -227.128,1436.206 h 85.55 v -9.705 h -85.55 v 9.096 0.609 z"
 id="path46347"
 style="fill:none;stroke:#ffffff;stroke-width:10;stroke-linejoin:round" />
<path
 d="m -217.249,1415.526 5.105,-8.088 h 54.831 l 5.106,8.088 h -65.042 z"
 id="path46349"
 style="fill:none;stroke:#ffffff;stroke-width:5;stroke-linejoin:round" />
<path
 d="m -217.273,1428.466 v -12.94 h 65.518 v 12.94 h -65.518 z"
 id="path46351"
 style="fill:none;stroke:#ffffff;stroke-width:10;stroke-linejoin:round" />
<path
 d="m -211.43,1407.438 v -42.055 h 53.403 v 42.055 h -53.403 z"
 id="path46353"
 style="fill:none;stroke:#ffffff;stroke-width:10" />
<path
 d="m -210.536,1367.258 -10.212,-8.087 72.719,-0.179 -10.212,8.088 -52.295,0.178 z"
 id="path46355"
 style="fill:none;stroke:#ffffff;stroke-width:10;stroke-linejoin:round" />
<path
 d="m -220.748,1357.296 v -14.746 h 13.901 v 6.47 h 14.02 v -6.47 h 18.162 v 6.47 h 12.092 v -6.47 h 14.401 v 14.746 h -72.576 z"
 id="path46357"
 style="fill:none;stroke:#ffffff;stroke-width:10;stroke-linejoin:round" />
<path
 d="m -225.792,1436.133 h 82.814 v -9.203 h -82.814 v 9.203 z"
 id="path46359"
 style="stroke:#000000;stroke-width:1.5;stroke-linejoin:round" />
<path
 d="m -215.057,1414.659 4.601,-7.669 h 52.143 l 4.602,7.669 h -61.346 z"
 id="path46361"
 style="stroke:#000000;stroke-width:1.5;stroke-linejoin:round" />
<path
 d="m -216.591,1426.93 v -12.271 h 64.412 v 12.271 h -64.412 z"
 id="path46363"
 style="stroke:#000000;stroke-width:1.5;stroke-linejoin:round" />
<path
 d="m -210.456,1406.99 v -39.878 h 52.143 v 39.878 h -52.143 z"
 id="path46365"
 style="stroke:#000000;stroke-width:1.5" />
<path
 d="m -210.456,1367.113 -9.201,-7.669 h 70.546 l -9.202,7.669 h -52.143 z"
 id="path46367"
 style="stroke:#000000;stroke-width:1.5;stroke-linejoin:round" />
<path
 d="m -219.657,1359.444 v -15.338 h 12.269 v 6.136 h 15.336 v -6.136 h 15.336 v 6.136 h 15.337 v -6.136 h 12.269 v 15.338 h -70.547 z"
 id="path46369"
 style="stroke:#000000;stroke-width:1.5;stroke-linejoin:round" />
<path
 d="m -216.591,1423.968 h 64.412 l 0,0"
 id="path46371"
 style="fill:none;stroke:#ffffff;stroke-width:4;stroke-linecap:round" />
<path
 d="m -213.523,1412.055 h 58.277"
 id="path46373"
 style="fill:none;stroke:#ffffff;stroke-width:4;stroke-linecap:round" />
<path
 d="m -210.456,1406.99 h 52.143"
 id="path46375"
 style="fill:none;stroke:#ffffff;stroke-linecap:round" />
<path
 d="m -210.456,1367.113 h 52.143"
 id="path46377"
 style="fill:none;stroke:#ffffff;stroke-linecap:round" />
<path
 d="m -219.657,1359.444 h 70.546"
 id="path46379"
 style="fill:none;stroke:#ffffff;stroke-width:4;stroke-linecap:round" />
</g>
</g>
</svg>
