<?xml version="1.0" encoding="UTF-8" standalone="no"?>
<!-- Created with Inkscape (http://www.inkscape.org/) -->

<svg
 xmlns:dc="http://purl.org/dc/elements/1.1/"
 xmlns:cc="http://creativecommons.org/ns#"
 xmlns:rdf="http://www.w3.org/1999/02/22-rdf-syntax-ns#"
 xmlns:svg="http://www.w3.org/2000/svg"
 xmlns="http://www.w3.org/2000/svg"
 xmlns:sodipodi="http://sodipodi.sourceforge.net/DTD/sodipodi-0.dtd"
 xmlns:inkscape="http://www.inkscape.org/namespaces/inkscape"
 id="whitePawn"
 version="1.1"
 inkscape:version="0.48.4 r9939"
 sodipodi:docname="WhitePawn.svg"
 width="62.5"
 height="62.5">
<defs
 id="defs4" />
<sodipodi:namedview
 id="base"
 pagecolor="#ffffff"
 bordercolor="#666666"
 borderopacity="1.0"
 inkscape:pageopacity="0.0"
 inkscape:pageshadow="2"
 inkscape:zoom="2"
 inkscape:cx="50"
 inkscape:cy="127.94629"
 inkscape:document-units="px"
 inkscape:current-layer="whitePawn"
 showgrid="false"
 inkscape:window-width="1280"
 inkscape:window-height="908"
 inkscape:window-x="0"
 inkscape:window-y="0"
 inkscape:window-maximized="1" />
<metadata
 id="metadata7">
<rdf:RDF>
<cc:Work
 rdf:about="">
<dc:format>image/svg+xml</dc:format>
<dc:type
 rdf:resource="http://purl.org/dc/dcmitype/StillImage" />
<dc:title />
</cc:Work>
</rdf:RDF>
</metadata>
<g
 inkscape:label="Layer 1"
 inkscape:groupmode="layer"
 id="layer1"
 transform="translate(18,-2981.5)">
<g
 id="g2994">
<path
 sodipodi:nodetypes="ccccc"
 inkscape:connector-curvature="0"
 id="path5379"
 d="m 0.450592,3026.9627 c 8.405541,0.058 16.811086,0.1154 25.216627,0.1731 -3.301343,-7.2511 -11.055111,-13.6126 -9.904034,-21.7535 -2.170121,0 -4.340243,0 -6.510359,0 2.074895,8.0832 -5.868158,14.3869 -8.802234,21.5804 z"
 style="fill:#ffd5d5;fill-opacity:1;stroke:#000000;stroke-width:0.40499824;stroke-linecap:butt;stroke-linejoin:round;stroke-miterlimit:3.5;stroke-opacity:0.98453603;stroke-dasharray:none;stroke-dashoffset:50" />
<path
 inkscape:connector-curvature="0"
 id="rect2994"
 d="m 22.739663,2997.1612 c 0,4.7665 -4.360599,8.6304 -9.739672,8.6304 -5.37908,0 -9.739679,-3.8639 -9.739679,-8.6304 0,-4.7664 4.360599,-8.6303 9.739679,-8.6303 5.379073,0 9.739672,3.8639 9.739672,8.6303 z"
 style="fill:#ffd5d5;fill-opacity:1;stroke:#000000;stroke-width:0.40499824;stroke-linecap:butt;stroke-linejoin:round;stroke-miterlimit:3.5;stroke-opacity:0.98453603;stroke-dasharray:none;stroke-dashoffset:50" />
<path
 sodipodi:nodetypes="ccccc"
 inkscape:connector-curvature="0"
 id="rect3002"
 d="m -6.38042,3039.6434 c 10.92761,0 27.794506,0.3568 38.722116,0.3568 0,-4.2696 0.971879,-9.5206 -3.131624,-12.8983 -10.92761,0 -21.639245,0 -32.566855,0 -3.779546,2.3072 -3.023637,8.2718 -3.023637,12.5415 z"
 style="fill:#ffd5d5;fill-opacity:1;stroke:#000000;stroke-width:0.31832072;stroke-linecap:butt;stroke-linejoin:round;stroke-miterlimit:3.5;stroke-opacity:0.98453603;stroke-dasharray:none;stroke-dashoffset:50" />
</g>
</g>
</svg>
